<?xml version="1.0" encoding="utf-8"?>
<!-- Generator: Adobe Illustrator 16.0.0, SVG Export Plug-In . SVG Version: 6.00 Build 0)  -->
<!DOCTYPE svg PUBLIC "-//W3C//DTD SVG 1.1//EN" "http://www.w3.org/Graphics/SVG/1.1/DTD/svg11.dtd">
<svg version="1.1" id="Layer_1" xmlns="http://www.w3.org/2000/svg" xmlns:xlink="http://www.w3.org/1999/xlink" x="0px" y="0px"
	 width="100px" height="100px" viewBox="0 0 100 100" enable-background="new 0 0 100 100" xml:space="preserve">
<circle fill="#0374BA" cx="50" cy="50" r="50"/>
<g>
	<path fill-rule="evenodd" clip-rule="evenodd" fill="#FFFFFF" d="M49.992,82.723c-3.65-0.176-7.305-0.271-10.946-0.549
		c-3.409-0.261-6.777-0.835-10-2.057c-3.927-1.488-6.849-3.997-8.1-8.131c-0.986-3.257-1.185-6.598-0.672-9.949
		c0.951-6.223,4.08-11.289,8.554-15.582c2.853-2.737,6.13-4.836,9.833-6.255c0.457-0.175,0.824-0.196,1.263,0.081
		c1.786,1.123,3.779,1.635,5.856,1.787c2.975,0.218,5.946,0.146,8.782-0.893c1.09-0.399,2.059-1.122,3.104-1.651
		c0.288-0.146,0.704-0.265,0.985-0.17C67.537,42.332,74.088,48,78.092,56.489c1.845,3.909,2.246,8.074,1.654,12.345
		c-0.322,2.325-0.951,4.536-2.305,6.492c-1.588,2.298-3.826,3.728-6.379,4.718c-3.418,1.325-7,1.902-10.63,2.156
		C56.961,82.442,53.479,82.554,49.992,82.723z M50.442,49.885c0-0.59-0.009-1.296,0.003-2.002c0.007-0.444-0.149-0.689-0.634-0.679
		c-0.688,0.016-1.376,0.012-2.064,0.002c-0.435-0.006-0.626,0.191-0.618,0.625c0.011,0.646-0.019,1.291,0.009,1.936
		c0.016,0.369-0.133,0.497-0.468,0.629c-0.772,0.307-1.573,0.604-2.255,1.064c-2.628,1.775-3.001,5.621-0.808,7.89
		c1.074,1.111,2.457,1.696,3.852,2.275c0.868,0.36,1.728,0.763,2.534,1.243c0.649,0.386,0.958,1.043,0.847,1.822
		c-0.112,0.788-0.616,1.318-1.348,1.483c-0.761,0.172-1.597,0.335-2.341,0.192c-1.207-0.231-2.377-0.681-3.537-1.109
		c-0.505-0.187-0.766-0.153-0.896,0.394c-0.104,0.438-0.242,0.868-0.365,1.302c-0.528,1.864-0.539,1.899,1.339,2.502
		c1.031,0.331,2.107,0.523,3.224,0.792c0,0.705,0.004,1.454-0.002,2.204c-0.003,0.446,0.189,0.687,0.652,0.685
		c0.688-0.003,1.376-0.003,2.064,0c0.447,0.002,0.672-0.188,0.659-0.663c-0.02-0.688,0.02-1.377-0.014-2.063
		c-0.02-0.403,0.155-0.527,0.506-0.664c0.793-0.311,1.618-0.607,2.317-1.078c2.841-1.911,3.232-6.228,0.706-8.529
		c-0.912-0.831-2.114-1.357-3.218-1.96c-0.939-0.512-1.943-0.906-2.891-1.405c-0.603-0.317-0.983-0.825-0.911-1.57
		c0.078-0.798,0.74-1.381,1.764-1.493c1.534-0.168,2.99,0.127,4.377,0.792c0.699,0.336,0.811,0.283,1.037-0.473
		c0.198-0.658,0.346-1.334,0.588-1.974c0.24-0.637,0.042-0.989-0.57-1.165C52.835,50.56,51.686,50.237,50.442,49.885z"/>
	<path fill-rule="evenodd" clip-rule="evenodd" fill="#FFFFFF" d="M48.066,38.474c-2.332-0.12-4.482-0.342-6.561-1.041
		c-1.046-0.353-1.817-0.912-2.255-2.006c-1.133-2.828-2.356-5.619-3.548-8.423c-0.151-0.354-0.333-0.697-0.5-1.045
		c-0.843-1.751,0.022-3.183,1.976-3.218c1.308-0.023,2.62,0.072,3.925,0.009c1.728-0.084,2.951-0.885,3.462-2.646
		c0.157-0.54,0.468-1.068,0.82-1.514c1.406-1.776,3.629-1.75,4.969,0.072c0.438,0.596,0.762,1.291,1.055,1.978
		c0.722,1.691,1.491,1.992,3.095,1.063c0.953-0.553,1.889-1.089,3.016-1.217c1.628-0.184,2.521,0.747,2.185,2.354
		c-0.078,0.373-0.207,0.748-0.381,1.087c-1.452,2.833-2.487,5.795-2.806,8.979c-0.057,0.554-0.092,1.118-0.049,1.671
		c0.072,0.93-0.33,1.552-1.087,2.028c-1.698,1.069-3.604,1.46-5.548,1.723C49.197,38.414,48.551,38.436,48.066,38.474z"/>
</g>
</svg>
