<?xml version="1.0" encoding="utf-8"?>
<!-- Generator: Adobe Illustrator 16.0.0, SVG Export Plug-In . SVG Version: 6.00 Build 0)  -->
<!DOCTYPE svg PUBLIC "-//W3C//DTD SVG 1.1//EN" "http://www.w3.org/Graphics/SVG/1.1/DTD/svg11.dtd">
<svg version="1.1" id="Layer_1" xmlns="http://www.w3.org/2000/svg" xmlns:xlink="http://www.w3.org/1999/xlink" x="0px" y="0px"
	 width="100px" height="100px" viewBox="0 0 100 100" enable-background="new 0 0 100 100" xml:space="preserve">
<circle fill="#0374BA" cx="50" cy="50" r="50"/>
<path fill="#FFFFFF" d="M68.75,21.438h-37.5c-5.652,0-10.25,4.598-10.25,10.25v25c0,5.652,4.598,10.25,10.25,10.25h10v4.375h-6.875
	c-2.274,0-4.125,1.851-4.125,4.125s1.851,4.125,4.125,4.125h31.25c2.274,0,4.125-1.851,4.125-4.125s-1.851-4.125-4.125-4.125H58.75
	v-4.375h10c5.652,0,10.25-4.598,10.25-10.25v-25C79,26.036,74.402,21.438,68.75,21.438z M71,56.688c0,1.24-1.01,2.25-2.25,2.25
	h-37.5c-1.241,0-2.25-1.01-2.25-2.25v-25c0-1.241,1.009-2.25,2.25-2.25h37.5c1.24,0,2.25,1.009,2.25,2.25V56.688z"/>
</svg>
