<?xml version="1.0" encoding="utf-8"?>
<!-- Generator: Adobe Illustrator 16.0.0, SVG Export Plug-In . SVG Version: 6.00 Build 0)  -->
<!DOCTYPE svg PUBLIC "-//W3C//DTD SVG 1.1//EN" "http://www.w3.org/Graphics/SVG/1.1/DTD/svg11.dtd">
<svg version="1.1" id="Layer_1" xmlns="http://www.w3.org/2000/svg" xmlns:xlink="http://www.w3.org/1999/xlink" x="0px" y="0px"
	 width="100px" height="100px" viewBox="0 0 100 100" enable-background="new 0 0 100 100" xml:space="preserve">
<circle fill="#FBAA19" cx="50" cy="50" r="50"/>
<g>
	<path fill="#FFFFFF" d="M83.385,59.034c-1.073-0.292-2.124-0.668-3.188-0.996c-0.422-0.13-0.723-0.343-0.9-0.781
		c-1.061-2.634-1.068-2.63,0.436-5.036c0.166-0.266,0.302-0.559,0.506-0.791c0.696-0.792,0.473-1.426-0.156-2.178
		c-0.612-0.733-1.149-0.946-2.039-0.499c-1.875,0.943-3.793,1.892-5.678-0.018c-0.023-0.023-0.059-0.037-0.091-0.05
		c-0.506-0.207-0.72-0.589-0.78-1.128c-0.121-1.07-0.306-2.134-0.438-3.204c-0.126-1.013-0.96-0.95-1.644-1.119
		c-0.623-0.154-1.156-0.115-1.491,0.568c-0.413,0.843-0.926,1.639-1.312,2.493c-0.372,0.822-1.004,1.021-1.822,1.291
		c-1.853,0.611-3.123-0.047-4.271-1.374c-0.271-0.313-0.645-0.54-0.912-0.856c-0.627-0.741-1.22-0.371-1.84-0.009
		c-0.609,0.355-1.246,0.639-0.998,1.575c0.267,1.007,0.44,2.039,0.651,3.061c0.077,0.375,0.21,0.79-0.07,1.104
		c-1.177,1.321-1.976,3.358-4.401,2.42c-0.451-0.03-0.906-0.034-1.354-0.099c-0.872-0.125-1.287,0.268-1.626,1.064
		c-0.45,1.057-0.252,1.744,0.709,2.34c1.726,1.07,3.211,2.268,2.755,4.69c-0.109,0.582-0.163,1.032-0.659,1.399
		c-0.896,0.662-1.754,1.372-2.63,2.061c-0.309,0.242-0.547,0.473-0.468,0.951c0.254,1.525,0.732,1.949,2.265,1.902
		c0.277-0.008,0.563,0.028,0.834-0.02c1.816-0.325,3.217,0.188,4.223,1.828c0.332,0.541,0.578,0.975,0.424,1.613
		c-0.244,1.014-0.389,2.053-0.664,3.057c-0.279,1.014,0.397,1.344,1.06,1.762c0.63,0.397,1.161,0.51,1.748-0.105
		c0.599-0.627,1.321-1.136,1.921-1.764c0.715-0.748,1.459-0.857,2.504-0.752c1.564,0.156,2.477,0.827,2.987,2.252
		c0.198,0.551,0.583,1.031,0.814,1.572c0.326,0.761,0.795,0.961,1.64,0.84c1.111-0.159,1.744-0.569,1.701-1.76
		c-0.01-0.273,0.122-0.552,0.113-0.825c-0.062-1.887,0.664-3.209,2.504-3.935c0.591-0.232,1.043-0.409,1.648-0.137
		c1.016,0.454,2.066,0.83,3.091,1.267c0.483,0.206,0.833,0.12,1.21-0.251c1.262-1.246,1.29-1.373,0.344-2.905
		c-0.109-0.177-0.197-0.375-0.335-0.528c-1.271-1.413-1.509-2.904-0.575-4.633c0.304-0.561,0.547-0.984,1.178-1.167
		c1.036-0.3,2.048-0.685,3.088-0.968c0.948-0.258,0.82-0.979,0.835-1.668C84.244,59.91,84.257,59.271,83.385,59.034z M66.555,66.734
		c-3.401-0.002-6.15-2.758-6.148-6.168c0.001-3.46,2.688-6.164,6.128-6.17c3.409-0.006,6.192,2.755,6.2,6.148
		C72.742,63.902,69.914,66.734,66.555,66.734z"/>
	<path fill="#FFFFFF" d="M33.362,27.209c0.75,0.501,1.414,1.131,2.154,1.649c0.662,0.462,0.827,1.045,0.924,1.838
		c0.215,1.758-0.298,3.021-1.884,3.857c-0.425,0.223-0.755,0.618-1.165,0.878c-0.72,0.459-0.747,1.017-0.508,1.79
		c0.322,1.041,0.888,1.503,1.982,1.324c0.373-0.061,0.764-0.01,1.249-0.01c1.504-0.49,2.622,0.029,3.622,1.409
		c0.622,0.857,0.888,1.55,0.595,2.539c-0.227,0.764-0.311,1.57-0.52,2.341c-0.212,0.783-0.015,1.269,0.702,1.727
		c0.946,0.606,1.697,0.667,2.438-0.255c0.237-0.294,0.602-0.487,0.836-0.783c1.125-1.417,2.489-1.756,4.225-1.225
		c0.7,0.214,1.167,0.462,1.482,1.112c0.44,0.907,0.983,1.765,1.408,2.678c0.396,0.853,1.057,0.746,1.765,0.632
		c0.72-0.116,1.356-0.272,1.439-1.195c0.09-1.003,0.306-1.996,0.384-3c0.061-0.791,0.529-1.131,1.111-1.591
		c1.482-1.174,2.889-1.045,4.404-0.177c0.449,0.257,0.979,0.371,1.441,0.607c0.888,0.454,1.258-0.223,1.707-0.734
		c0.443-0.504,0.878-0.972,0.344-1.727c-0.661-0.936-1.223-1.942-1.83-2.917c-0.209-0.333-0.32-0.645-0.182-1.071
		c0.873-2.673,0.862-2.677,3.567-3.552c0.265-0.086,0.524-0.204,0.796-0.252c1.038-0.183,1.385-0.769,1.381-1.826
		c-0.004-1.03-0.391-1.53-1.357-1.74c-2.01-0.437-3.885-0.999-4.229-3.524c-0.084-0.622-0.176-1.106,0.188-1.646
		c0.581-0.866,1.086-1.784,1.671-2.647c0.624-0.921-0.163-1.387-0.573-1.98c-0.379-0.549-0.816-0.777-1.506-0.457
		c-1.008,0.469-2.057,0.851-3.088,1.273c-0.365,0.15-0.689,0.196-1.084-0.017c-2.543-1.371-2.549-1.36-2.984-4.19
		c-0.043-0.275-0.104-0.551-0.107-0.827c-0.01-1.015-0.545-1.435-1.518-1.614c-0.934-0.173-1.522,0.006-1.892,0.928
		c-0.798,1.993-1.802,3.729-4.384,3.685c-0.594-0.01-1.055-0.009-1.497-0.436c-0.751-0.724-1.557-1.392-2.31-2.114
		c-0.408-0.393-0.78-0.461-1.305-0.212c-1.531,0.726-1.75,0.926-1.271,2.543c0.602,2.031,0.688,3.826-1.113,5.338
		c-0.398,0.333-0.706,0.592-1.251,0.561c-1.042-0.06-2.093,0-3.13-0.097c-1.029-0.096-1.285,0.558-1.576,1.31
		C32.63,26.147,32.625,26.716,33.362,27.209z M49.533,25.02c3.346-0.033,6.188,2.787,6.211,6.161
		c0.023,3.389-2.736,6.184-6.137,6.214c-3.379,0.031-6.2-2.754-6.215-6.138C43.377,27.881,46.161,25.053,49.533,25.02z"/>
	<path fill="#FFFFFF" d="M50.267,60.622c0.006-0.722-0.017-1.38-0.932-1.617c-1.043-0.271-2.058-0.647-3.088-0.97
		c-0.419-0.13-0.712-0.335-0.886-0.785c-1.029-2.668-1.041-2.664,0.487-5.111c0.258-0.413,0.516-0.826,0.766-1.245
		c0.145-0.242,0.232-0.481,0.123-0.787c-0.477-1.322-1.527-1.799-2.828-1.262c-0.161,0.067-0.334,0.113-0.48,0.204
		c-1.705,1.059-3.305,1.099-4.941-0.246c-0.527-0.434-0.89-0.797-0.97-1.468c-0.119-1.001-0.31-1.994-0.417-2.997
		c-0.112-1.046-0.967-0.931-1.634-1.107c-0.622-0.165-1.149-0.11-1.486,0.573c-0.477,0.967-1.024,1.899-1.522,2.856
		c-0.222,0.425-0.5,0.703-1.004,0.806c-2.866,0.584-2.863,0.594-5.024-1.414c-0.255-0.237-0.545-0.441-0.772-0.702
		c-0.629-0.725-1.224-0.361-1.847,0.001c-0.614,0.357-1.231,0.646-0.984,1.581c0.284,1.075,0.462,2.177,0.69,3.267
		c0.065,0.311,0.145,0.626-0.096,0.894c-1.188,1.318-1.999,3.332-4.414,2.42c-0.347-0.029-0.699-0.028-1.04-0.092
		c-1.127-0.208-1.726,0.262-2.048,1.351c-0.228,0.771-0.224,1.337,0.513,1.788c0.354,0.217,0.635,0.561,0.997,0.756
		c1.657,0.893,2.301,2.229,2.067,4.105c-0.085,0.68-0.232,1.178-0.788,1.584c-0.815,0.596-1.572,1.271-2.397,1.85
		c-0.708,0.496-0.606,1.076-0.355,1.741c0.254,0.671,0.478,1.312,1.407,1.255c1.007-0.062,2.022-0.014,3.027-0.088
		c0.777-0.059,1.213,0.322,1.778,0.808c1.438,1.234,1.561,2.63,0.975,4.27c-0.162,0.454-0.174,0.961-0.319,1.424
		c-0.242,0.774,0.089,1.188,0.723,1.615c0.923,0.623,1.678,0.718,2.407-0.239c0.186-0.244,0.505-0.385,0.696-0.627
		c1.175-1.484,2.606-1.996,4.462-1.392c0.565,0.185,1.015,0.337,1.296,0.894c0.518,1.025,1.112,2.012,1.61,3.045
		c0.384,0.798,0.994,0.6,1.604,0.477c0.624-0.124,1.366-0.061,1.466-1c0.111-1.037,0.302-2.066,0.412-3.104
		c0.083-0.791,0.509-1.208,1.146-1.693c1.452-1.105,2.804-1.066,4.292-0.201c0.477,0.277,1.044,0.395,1.537,0.65
		c0.687,0.354,1.125,0.061,1.497-0.478c0.408-0.591,1.202-1.047,0.562-1.976c-0.631-0.916-1.166-1.898-1.779-2.826
		c-0.322-0.487-0.237-0.912-0.131-1.459c0.392-2.009,1.623-3.006,3.565-3.31c0.408-0.063,0.79-0.274,1.195-0.371
		C50.313,62.049,50.261,61.326,50.267,60.622z M32.638,66.733c-3.362,0.026-6.218-2.784-6.236-6.138
		c-0.017-3.395,2.743-6.176,6.153-6.201c3.422-0.023,6.186,2.698,6.21,6.117C38.789,63.904,36.03,66.706,32.638,66.733z"/>
</g>
</svg>
