<?xml version="1.0" encoding="utf-8"?>
<!-- Generator: Adobe Illustrator 16.0.0, SVG Export Plug-In . SVG Version: 6.00 Build 0)  -->
<!DOCTYPE svg PUBLIC "-//W3C//DTD SVG 1.1//EN" "http://www.w3.org/Graphics/SVG/1.1/DTD/svg11.dtd">
<svg version="1.1" id="Layer_1" xmlns="http://www.w3.org/2000/svg" xmlns:xlink="http://www.w3.org/1999/xlink" x="0px" y="0px"
	 width="100px" height="100px" viewBox="0 0 100 100" enable-background="new 0 0 100 100" xml:space="preserve">
<circle fill-rule="evenodd" clip-rule="evenodd" fill="#FBAA19" cx="50" cy="50" r="50"/>
<g>
	<path fill-rule="evenodd" clip-rule="evenodd" fill="#FFFFFF" d="M41.376,28.616c0.116,0.166,0.32,0.563,0.62,0.866
		c8.552,8.602,17.118,17.191,25.663,25.799c0.412,0.415,0.752,0.954,0.977,1.496c2.697,6.458,5.365,12.929,8.039,19.396
		c0.148,0.358,0.268,0.728,0.484,1.327c-0.502-0.156-0.824-0.23-1.123-0.354c-6.562-2.726-13.125-5.451-19.679-8.195
		c-0.449-0.188-0.9-0.461-1.241-0.803c-8.772-8.787-17.53-17.588-26.289-26.388c-0.149-0.15-0.277-0.321-0.385-0.447
		C32.693,37.141,36.917,32.994,41.376,28.616z M62.202,62.522c-2.973-0.42-4.018,0.26-4.842,2.959
		c-0.194,0.637-0.03,0.891,0.542,1.124c3.525,1.445,7.053,2.892,10.551,4.403c0.773,0.333,1.123-0.059,1.529-0.509
		c0.428-0.472,1.07-0.776,0.682-1.684c-1.516-3.536-2.951-7.105-4.422-10.66c-0.094-0.222-0.24-0.422-0.352-0.616
		C62.616,58.196,61.799,59.292,62.202,62.522z"/>
	<path fill-rule="evenodd" clip-rule="evenodd" fill="#FFFFFF" d="M37.634,25.154c-4.257,4.239-8.446,8.41-12.73,12.677
		c-2.157-2.294-3.1-5.08-2.335-8.301c0.881-3.709,3.263-6.095,6.999-6.832C32.629,22.095,35.416,22.859,37.634,25.154z"/>
</g>
</svg>
