<?xml version="1.0" encoding="utf-8"?>
<!-- Generator: Adobe Illustrator 16.0.0, SVG Export Plug-In . SVG Version: 6.00 Build 0)  -->
<!DOCTYPE svg PUBLIC "-//W3C//DTD SVG 1.1//EN" "http://www.w3.org/Graphics/SVG/1.1/DTD/svg11.dtd">
<svg version="1.1" id="Layer_1" xmlns="http://www.w3.org/2000/svg" xmlns:xlink="http://www.w3.org/1999/xlink" x="0px" y="0px"
	 width="100px" height="100px" viewBox="0 0 100 100" enable-background="new 0 0 100 100" xml:space="preserve">
<g>
	<circle fill-rule="evenodd" clip-rule="evenodd" fill="#FBAA19" cx="50" cy="50" r="50"/>
	<g>
		<path fill="#FFFFFF" d="M54.524,22.512c0.919,0,1.838,0,2.756,0c0.815,0.127,1.632,0.246,2.444,0.384
			c8.067,1.367,14.978,7.85,16.843,15.839c0.296,1.269,0.447,2.573,0.666,3.86c0,0.875,0,1.75,0,2.625
			c-0.039,0.191-0.099,0.38-0.115,0.573c-0.219,2.664-0.925,5.196-2.122,7.583c-5.603,11.166-19.177,15.209-29.986,8.941
			c-0.146-0.084-0.301-0.154-0.572-0.293c-0.142,0.189-0.265,0.404-0.434,0.574c-4.373,4.375-8.75,8.746-13.127,13.117
			c-0.216,0.217-0.432,0.436-0.666,0.633c-2.641,2.217-6.674,1.047-7.724-2.238c-0.085-0.268-0.169-0.533-0.254-0.799
			c0-0.438,0-0.875,0-1.312c0.298-1.562,1.282-2.668,2.373-3.746c4.197-4.15,8.357-8.34,12.539-12.508
			c0.182-0.182,0.448-0.279,0.675-0.416c-0.245-0.324-0.314-0.461-0.39-0.592c-2.479-4.266-3.397-8.842-2.753-13.74
			c1.134-8.633,7.644-15.871,16.113-17.845C52.017,22.866,53.278,22.722,54.524,22.512z M55.834,28.65
			c-8.449,0.002-15.257,6.822-15.247,15.274c0.011,8.421,6.804,15.216,15.225,15.229c8.449,0.014,15.273-6.793,15.279-15.241
			C71.099,35.462,64.287,28.648,55.834,28.65z"/>
		<path fill-rule="evenodd" clip-rule="evenodd" fill="#FFFFFF" d="M67.51,41.998c-0.07,1.287-0.924,2.289-2.171,2.479
			c-1.193,0.182-2.346-0.525-2.671-1.718c-0.812-2.98-2.677-4.864-5.677-5.653c-1.204-0.316-1.913-1.478-1.731-2.658
			c0.197-1.283,1.211-2.209,2.492-2.113c0.768,0.059,1.577,0.222,2.268,0.548c3.271,1.546,5.617,4.018,7.017,7.36
			C67.268,40.795,67.356,41.411,67.51,41.998z"/>
	</g>
</g>
</svg>
