<?xml version="1.0" encoding="utf-8"?>
<!-- Generator: Adobe Illustrator 16.0.0, SVG Export Plug-In . SVG Version: 6.00 Build 0)  -->
<!DOCTYPE svg PUBLIC "-//W3C//DTD SVG 1.1//EN" "http://www.w3.org/Graphics/SVG/1.1/DTD/svg11.dtd">
<svg version="1.1" id="Layer_1" xmlns="http://www.w3.org/2000/svg" xmlns:xlink="http://www.w3.org/1999/xlink" x="0px" y="0px"
	 width="100px" height="100px" viewBox="0 0 100 100" enable-background="new 0 0 100 100" xml:space="preserve">
<circle fill="#0374BA" cx="50" cy="50" r="50"/>
<g>
	<path fill-rule="evenodd" clip-rule="evenodd" fill="#FFFFFF" d="M82.5,69.275c-0.922,1.859-2.669,2.67-4.582,2.033
		c-0.284-0.095-0.508-0.594-0.619-0.949c-1.167-3.709-3.605-5.98-7.489-6.496c-4.544-0.605-8.612,2.24-9.729,6.691
		c-0.051,0.201-0.106,0.402-0.156,0.59c-1.206,0.094-2.086-0.51-2.318-1.629c-0.103-0.492-0.104-1.012-0.104-1.518
		c-0.006-7.717-0.006-15.433-0.002-23.148c0.002-2.696,0.779-3.469,3.48-3.474c3.18-0.006,6.359,0.011,9.539-0.006
		c1.534-0.008,2.822,0.466,3.768,1.721c2.118,2.808,4.309,5.565,6.32,8.448c0.83,1.19,1.273,2.651,1.893,3.989
		C82.5,60.11,82.5,64.693,82.5,69.275z M78.41,56.344c-0.314-0.688-0.457-1.178-0.734-1.572c-1.805-2.562-3.621-5.115-5.482-7.633
		c-0.271-0.368-0.804-0.746-1.23-0.763c-1.974-0.081-3.953-0.036-5.965-0.036c0,3.417,0,6.693,0,10.004
		C69.436,56.344,73.783,56.344,78.41,56.344z"/>
	<path fill-rule="evenodd" clip-rule="evenodd" fill="#FFFFFF" d="M49.732,36.413c0.855,0,1.655-0.023,2.453,0.005
		c1.647,0.058,2.48,0.824,2.682,2.452c0.046,0.377,0.033,0.762,0.033,1.143c0.002,9.245,0.003,18.489,0.001,27.734
		c-0.001,2.887-0.727,3.612-3.595,3.618c-1.228,0.003-2.455,0.001-3.359,0.001c-1.089-1.792-1.819-3.613-3.072-4.939
		c-4.657-4.928-13.017-2.717-14.781,3.841c-0.242,0.897-0.601,1.16-1.463,1.113c-1.142-0.063-2.29,0.008-3.434-0.024
		c-1.91-0.054-2.777-0.923-2.783-2.851c-0.018-5.979-0.026-11.959,0.01-17.938c0.006-0.995-0.281-1.728-0.925-2.504
		c-4.112-4.965-5.13-10.575-2.697-16.524c2.41-5.896,6.985-9.291,13.375-9.882c8.553-0.792,15.772,4.899,17.275,13.437
		C49.518,35.466,49.609,35.836,49.732,36.413z M46.248,37.419c-0.185-7.079-6.028-12.639-13.084-12.451
		c-6.697,0.178-12.394,6.196-12.168,12.855c0.241,7.115,6.039,12.575,13.146,12.378C40.772,50.018,46.421,44.055,46.248,37.419z"/>
	<path fill-rule="evenodd" clip-rule="evenodd" fill="#FFFFFF" d="M68.733,66.975c3.195,0.007,5.722,2.545,5.704,5.73
		c-0.018,3.184-2.576,5.727-5.746,5.712c-3.152-0.015-5.752-2.62-5.739-5.754C62.965,69.514,65.555,66.967,68.733,66.975z"/>
	<path fill-rule="evenodd" clip-rule="evenodd" fill="#FFFFFF" d="M38.582,66.973c3.218-0.018,5.74,2.461,5.761,5.662
		c0.02,3.199-2.487,5.762-5.66,5.782c-3.163,0.021-5.771-2.535-5.797-5.683C32.858,69.578,35.419,66.988,38.582,66.973z"/>
	<path fill-rule="evenodd" clip-rule="evenodd" fill="#FFFFFF" d="M33.857,27.619c0.198,0.388,0.536,0.764,0.569,1.165
		c0.125,1.516,0.277,3.049,0.181,4.561c-0.128,2.02,1.026,3.484,1.971,5.006c0.727,1.172,1.777,2.146,2.698,3.195
		c0.509,0.58,0.71,1.16,0.102,1.784c-0.634,0.65-1.2,0.36-1.761-0.141c-0.853-0.76-1.686-1.547-2.594-2.237
		c-0.618-0.47-1.312-0.889-2.037-1.161c-1.515-0.57-2.071-2.104-1.285-3.487c0.393-0.691,0.697-1.503,0.78-2.288
		c0.183-1.722,0.167-3.464,0.307-5.192c0.033-0.41,0.358-0.796,0.549-1.193C33.51,27.626,33.683,27.623,33.857,27.619z"/>
</g>
</svg>
