<?xml version="1.0" encoding="utf-8"?>
<!-- Generator: Adobe Illustrator 16.0.0, SVG Export Plug-In . SVG Version: 6.00 Build 0)  -->
<!DOCTYPE svg PUBLIC "-//W3C//DTD SVG 1.1//EN" "http://www.w3.org/Graphics/SVG/1.1/DTD/svg11.dtd">
<svg version="1.1" id="Layer_1" xmlns="http://www.w3.org/2000/svg" xmlns:xlink="http://www.w3.org/1999/xlink" x="0px" y="0px"
	 width="100px" height="100px" viewBox="0 0 100 100" enable-background="new 0 0 100 100" xml:space="preserve">
<circle fill="#0374BA" cx="50" cy="50" r="50"/>
<g>
	<g>
		<path fill-rule="evenodd" clip-rule="evenodd" fill="#FFFFFF" d="M57.902,70.596c-0.997-0.762-2.127-0.924-3.161-1.378
			c-0.47-0.206-0.902-0.525-1.337-0.823c-0.081-0.057-0.145-0.268-0.121-0.382c0.647-3.104,1.275-6.215,1.975-9.304
			c0.512-2.264,1.213-4.457,2.306-6.459c1.1-2.016,2.53-3.614,4.583-4.284c1.023-0.334,2.093-0.511,3.151-0.688
			c2.104-0.351,4.225-0.37,6.343-0.279c2.285,0.096,4.547,0.415,6.734,1.227c2.064,0.766,3.553,2.328,4.679,4.388
			c1.104,2.021,1.808,4.235,2.372,6.507c0.701,2.821,1.354,5.658,2.024,8.489c0.032,0.135,0.046,0.278,0.046,0.419
			c0.006,0.521,0.003,1.045,0.003,1.567c-0.001,0.63,0.023,0.474-0.481,0.579c-0.68,0.141-1.344,0.406-2.004,0.654
			c-0.641,0.241-1.254,0.582-1.958,0.545c-0.543-0.029-0.655-0.137-0.647-0.752c0.042-3.154-0.471-6.181-1.779-8.977
			c-0.551-1.179-1.26-2.261-1.899-3.384c-0.047-0.083-0.117-0.15-0.228-0.288c-0.028,0.396-0.071,0.707-0.068,1.017
			c0.014,1.187,0.026,2.372,0.068,3.556c0.027,0.779,0.1,1.559,0.155,2.336c0.077,1.085,0.196,2.17,0.226,3.256
			c0.043,1.586,0.025,3.174,0.016,4.761c0,0.103-0.148,0.26-0.252,0.294c-0.977,0.329-1.949,0.695-2.943,0.938
			c-1.785,0.438-3.607,0.475-5.422,0.354c-2.355-0.156-4.659-0.632-6.768-1.919c-0.52-0.317-0.979-0.761-1.461-1.155
			c-0.186-0.15-0.22-0.336-0.186-0.614c0.137-1.147,0.297-2.298,0.332-3.452c0.077-2.512,0.088-5.025,0.115-7.539
			c0.006-0.615-0.028-1.231-0.049-1.848c-0.005-0.126-0.027-0.25-0.053-0.465c-0.13,0.127-0.215,0.196-0.287,0.281
			c-1.166,1.4-1.82,3.116-2.26,4.932c-0.529,2.188-0.97,4.4-1.453,6.603C58.123,69.721,58.017,70.126,57.902,70.596z"/>
		<path fill-rule="evenodd" clip-rule="evenodd" fill="#FFFFFF" d="M62.769,34.188c0.042-2.046,0.532-3.888,1.782-5.403
			c1.006-1.217,2.262-1.922,3.682-2.271c1.881-0.462,3.744-0.401,5.575,0.316c1.997,0.783,3.315,2.331,3.92,4.621
			c0.843,3.189,0.619,6.275-0.872,9.172c-1.016,1.97-2.576,3.021-4.568,3.32c-1.521,0.229-2.992,0.095-4.406-0.593
			c-1.598-0.775-2.815-2.054-3.726-3.721C63.244,37.961,62.803,36.134,62.769,34.188z"/>
	</g>
	<g>
		<path fill-rule="evenodd" clip-rule="evenodd" fill="#FFFFFF" d="M21.715,61.33c-0.264,0.209-0.548,0.393-0.789,0.633
			c-0.754,0.754-1.218,1.737-1.617,2.762c-0.758,1.949-1.208,4.002-1.5,6.098c-0.166,1.189-0.288,2.387-0.434,3.619
			c-0.132-0.052-0.284-0.113-0.436-0.17c-1.372-0.52-2.743-1.045-4.12-1.551c-0.228-0.083-0.286-0.203-0.303-0.471
			c-0.112-1.82,0.353-3.539,0.697-5.277c0.469-2.368,1.042-4.703,1.879-6.942c0.867-2.319,2.018-4.415,3.761-6.032
			c1.5-1.394,3.235-2.23,5.104-2.731c1.721-0.461,3.472-0.669,5.239-0.66c1.333,0.007,2.671,0.006,4.001,0.103
			c1.444,0.104,2.881,0.313,4.321,0.491c0.136,0.017,0.271,0.115,0.394,0.2c2.312,1.611,4.022,3.856,5.301,6.548
			c1.256,2.649,2.051,5.487,2.554,8.427c0.318,1.854,0.519,3.733,0.772,5.603c0.017,0.128,0.063,0.263,0.044,0.384
			c-0.017,0.104-0.088,0.242-0.167,0.279c-0.868,0.4-1.734,0.814-2.62,1.161c-0.506,0.198-1.048,0.28-1.574,0.413
			c-0.02,0.005-0.042,0-0.063,0c-0.537-0.012-0.632-0.104-0.655-0.698c-0.029-0.687-0.021-1.376-0.072-2.06
			c-0.243-3.254-0.975-6.314-2.825-8.912c-0.28-0.393-0.594-0.752-0.892-1.127c-0.031,0.012-0.061,0.021-0.091,0.033
			c-0.02,0.129-0.058,0.258-0.053,0.386c0.054,1.823,0.1,3.647,0.179,5.469c0.062,1.407,0.198,2.81,0.249,4.216
			c0.054,1.48,0.049,2.965,0.062,4.446c0.004,0.479-0.04,0.509-0.44,0.599c-1.909,0.425-3.817,0.857-5.726,1.284
			c-0.163,0.036-0.33,0.062-0.494,0.063c-1.046,0.006-2.104,0.115-3.132-0.029c-1.014-0.145-2.005-0.525-2.995-0.844
			c-1.302-0.42-2.595-0.869-3.885-1.328c-0.438-0.157-0.402-0.186-0.34-0.68c0.125-0.98,0.28-1.967,0.306-2.954
			c0.061-2.358,0.022-4.722,0.086-7.079c0.032-1.143,0.208-2.279,0.318-3.418c0.005-0.057,0.014-0.11,0.021-0.166
			C21.76,61.387,21.737,61.358,21.715,61.33z"/>
		<path fill-rule="evenodd" clip-rule="evenodd" fill="#FFFFFF" d="M37.163,37.586c-0.054,3.288-0.849,5.793-2.748,7.755
			c-1.08,1.117-2.367,1.753-3.818,1.943c-1.459,0.19-2.903,0.091-4.275-0.536c-1.782-0.815-2.94-2.36-3.7-4.32
			c-0.568-1.465-0.821-3.01-0.745-4.603c0.2-4.202,2.432-7.354,6.247-8.102c1.503-0.294,2.994-0.302,4.445,0.271
			c2.308,0.913,3.685,2.816,4.292,5.453C37.052,36.275,37.104,37.145,37.163,37.586z"/>
	</g>
	<g>
		<path fill-rule="evenodd" clip-rule="evenodd" fill="#FFFFFF" d="M65.367,44.77c-0.703,0.161-1.391,0.329-2.082,0.475
			c-1.027,0.218-2.062,0.389-3.108,0.282c-0.438-0.044-0.88-0.187-1.294-0.364c-0.388-0.166-0.669-0.517-0.853-0.951
			c-0.043-0.1-0.097-0.194-0.181-0.362c-0.074,0.633-0.121,1.179-0.205,1.719c-0.279,1.826-0.947,3.475-1.797,5.038
			c-0.709,1.3-1.45,2.579-2.119,3.904c-0.853,1.684-1.358,3.504-1.449,5.455c-0.012,0.238-0.088,0.342-0.302,0.341
			c-1.536-0.005-3.073,0.001-4.609-0.013c-0.089,0-0.235-0.119-0.256-0.211c-0.474-2.066-1.555-3.73-2.718-5.342
			c-0.975-1.35-1.915-2.727-2.455-4.391c-0.511-1.578-0.621-3.203-0.483-4.862c0.032-0.37,0.059-0.741,0.087-1.11
			c-0.035-0.019-0.07-0.037-0.105-0.055c-0.189,0.312-0.406,0.61-0.565,0.941c-0.501,1.047-0.654,2.186-0.641,3.362
			c0.004,0.48,0,0.472-0.427,0.483c-1.216,0.034-2.368-0.355-3.532-0.672c-0.331-0.091-0.662-0.181-1.04-0.284
			c0.857-0.559,1.581-1.224,2.187-2.05c1.119-1.529,1.756-3.275,1.933-5.257c0.107-1.211-0.011-2.388-0.276-3.55
			c-0.067-0.291,0.01-0.474,0.159-0.67c0.639-0.849,1.457-1.416,2.349-1.843c1.382-0.663,2.831-1.067,4.319-1.216
			c1.463-0.147,2.935-0.297,4.4-0.269c2.778,0.054,5.529,0.412,8.173,1.475c0.44,0.177,0.866,0.406,1.286,0.642
			c0.105,0.06,0.208,0.23,0.227,0.365c0.268,1.769,0.64,3.497,1.404,5.088c0.86,1.787,2.108,3.07,3.793,3.79
			c0.049,0.021,0.096,0.043,0.145,0.067C65.339,44.725,65.344,44.738,65.367,44.77z"/>
		<path fill-rule="evenodd" clip-rule="evenodd" fill="#FFFFFF" d="M57.475,21.019c-0.053,3.288-0.848,5.793-2.747,7.754
			c-1.079,1.117-2.366,1.754-3.817,1.943c-1.459,0.191-2.903,0.092-4.276-0.535c-1.782-0.816-2.94-2.36-3.699-4.32
			c-0.568-1.465-0.821-3.01-0.745-4.603c0.2-4.201,2.432-7.354,6.248-8.102c1.503-0.294,2.994-0.302,4.445,0.272
			c2.308,0.913,3.684,2.816,4.291,5.453C57.364,19.708,57.416,20.578,57.475,21.019z"/>
	</g>
</g>
</svg>
