<?xml version="1.0" encoding="utf-8"?>
<!-- Generator: Adobe Illustrator 16.0.0, SVG Export Plug-In . SVG Version: 6.00 Build 0)  -->
<!DOCTYPE svg PUBLIC "-//W3C//DTD SVG 1.1//EN" "http://www.w3.org/Graphics/SVG/1.1/DTD/svg11.dtd">
<svg version="1.1" id="Layer_1" xmlns="http://www.w3.org/2000/svg" xmlns:xlink="http://www.w3.org/1999/xlink" x="0px" y="0px"
	 width="618px" height="216.5px" viewBox="0 0 618 216.5" enable-background="new 0 0 618 216.5" xml:space="preserve">
<path fill="#0073B9" d="M200.722,55.99h19.456c19.456,0,25.088,2.048,29.184,9.216c3.584,5.376,5.119,10.24,7.168,20.48l7.68-1.024
	c-1.281-12.032-2.561-28.416-2.561-37.632H189h-15h-24.99v7.168c19.712,1.536,21.76,2.816,21.76,25.088v73.242v28.645
	c0,0.558-0.002,1.093-0.005,1.624c-0.111,20.46-2.561,21.967-22.522,23.464v7.168h69.631v-7.168
	c-23.296-1.536-25.344-3.072-25.344-25.088v-46.335h26.368c23.295,0,24.32,3.072,27.647,20.479h7.168v-49.151h-7.168
	c-3.328,16.384-4.352,18.688-27.647,18.688H192.53V63.926C192.53,56.502,193.298,55.99,200.722,55.99z"/>
<path fill="#FAA819" d="M174,0h-53h-15v15v110.25c0,5.468-1.052,9.645-2.963,11.763c-1.565,1.733-4.437,2.612-8.537,2.612
	s-6.972-0.879-8.537-2.612C84.052,134.895,83,130.718,83,125.25V15V0H68H15H0v15v116.125c0,12.256,2.375,23.717,7.06,34.063
	c4.639,10.247,11.428,19.172,20.179,26.528C44.191,205.968,67.45,213.5,94.5,213.5c14.061,0,27.083-2.053,38.742-6.009
	c8.223-2.791,22.501-11.183,22.501-11.183l0.018-13.19c0.005-0.615,0.009-1.255,0.009-1.946v-4.301
	C141.782,190.664,120.496,198.5,94.5,198.5c-47.625,0-79.5-26.25-79.5-67.375V15h53v110.25c0,19,9.375,29.375,26.5,29.375
	S121,144.25,121,125.25V15h53v17.03h15V15V0H174z"/>
<g>
	<path fill="#0073B9" d="M483.6,186.804v-49.407c0-24.831-12.801-38.911-33.023-38.911c-7.426,0-14.08,3.072-21.248,7.68
		c-6.4,4.352-12.033,8.192-17.152,12.032v-20.48c-11.264,5.12-23.295,8.192-35.584,10.496v5.888
		c13.824,2.561,15.359,3.328,15.359,19.712v52.991c0,13.601-0.836,17.081-10.238,18.856c0,0-19.178,5.449-18.943-20.392
		c0.232-25.841,0-85.503,0-85.503c-13.568,2.815-26.879,3.84-40.191,4.607v5.888c18.432,2.561,19.967,3.584,19.967,18.176v59.647
		c-8.703,8.448-18.432,12.288-27.646,12.288c-11.52,0-22.527-6.145-22.527-28.928v-34.304c0-17.407,0-29.439,0.768-37.375
		c-12.289,2.304-24.576,3.84-36.607,4.607v5.888c14.592,2.816,15.615,3.84,15.615,17.92v50.176
		c0,27.647,14.592,38.144,31.744,38.144c6.912,0,12.287-2.048,19.711-6.4c7.168-4.352,13.057-8.96,18.943-13.312v18.176l1.537,1.536
		c9.809-2.942,29.182-3.072,29.182-3.072h55.553v-6.656c-15.105-1.535-16.641-2.56-16.641-19.968v-60.159
		c7.68-6.655,17.664-13.056,27.904-13.056c17.15,0,23.295,11.52,23.295,29.184v42.752c0,17.663-1.791,19.712-16.896,21.247v6.656
		h53.248v-6.656C484.879,205.236,483.6,204.212,483.6,186.804z"/>
</g>
<g>
	<path fill="#0073B9" d="M618,206.771c-5.633,1.024-24.832,4.353-39.68,9.729v-16.64l-15.617,9.216
		c-9.982,5.888-16.895,7.424-19.967,7.424c-20.48,0-47.359-18.688-47.359-54.527c0-35.584,31.23-63.487,66.047-63.487
		c3.584,0,11.008,0.768,16.896,2.815V65.206c0-16.896-1.281-17.664-19.713-18.944v-6.144c13.312-1.792,30.465-5.632,39.936-8.96
		v152.83c0,13.312,1.793,14.592,11.264,15.615l8.193,0.769V206.771z M578.32,121.013c-6.145-8.96-16.641-13.056-26.369-13.056
		c-11.775,0-33.279,9.984-33.279,47.104c0,30.464,18.688,45.312,35.072,45.312c9.215,0,18.432-4.096,24.576-8.704V121.013z"/>
</g>
</svg>
